<?xml version="1.0" encoding="iso-8859-1"?>
<!-- Generator: Adobe Illustrator 19.0.0, SVG Export Plug-In . SVG Version: 6.00 Build 0)  -->
<svg version="1.1" id="Capa_1" xmlns="http://www.w3.org/2000/svg" xmlns:xlink="http://www.w3.org/1999/xlink" fill="white" width="24px"
	 height="24px" viewBox="0 0 416.52 416.52" style="enable-background:new 0 0 416.52 416.52;" xml:space="preserve">
<g>
	<g>
		<path d="M379.703,53.794C332.02,8.052,256.284,9.626,210.543,57.309l-3,3l-3.24-3.24c-46.69-46.756-122.444-46.81-169.2-0.12
			c-46.756,46.69-46.81,122.444-0.12,169.2l168,168c0.817,0.858,1.905,1.409,3.08,1.56c0.604,0.213,1.24,0.322,1.88,0.32
			c1.405-0.026,2.749-0.583,3.76-1.56l168-168c1.196-1.147,2.367-2.319,3.514-3.514C428.959,175.271,427.385,99.536,379.703,53.794z
			 M371.823,218.669l-164.36,164.28l-164.44-164.52c-20.372-20.35-31.814-47.968-31.803-76.763
			c0.024-59.89,48.593-108.421,108.483-108.397v0c28.782-0.07,56.395,11.381,76.68,31.8l7.08,7.16c2.223,2.175,5.777,2.175,8,0
			l7-6.96c42.36-42.349,111.031-42.34,153.38,0.02S414.183,176.319,371.823,218.669z"/>
	</g>
</g>
<g>
</g>
<g>
</g>
<g>
</g>
<g>
</g>
<g>
</g>
<g>
</g>
<g>
</g>
<g>
</g>
<g>
</g>
<g>
</g>
<g>
</g>
<g>
</g>
<g>
</g>
<g>
</g>
<g>
</g>
</svg>
